<?xml version="1.0" encoding="UTF-8"?><!DOCTYPE svg PUBLIC "-//W3C//DTD SVG 1.1//EN" "http://www.w3.org/Graphics/SVG/1.1/DTD/svg11.dtd"><svg xmlns="http://www.w3.org/2000/svg" xmlns:xlink="http://www.w3.org/1999/xlink"><defs>
<clipPath id="clip0_162_17025">
<rect width="30" height="20" rx="4" fill="white"/>
</clipPath>

<clipPath id="clip0_162_16914">
<rect width="30" height="20" rx="4" fill="white"/>
</clipPath>

<clipPath id="clip0_162_16315">
<rect width="30" height="20" rx="4" fill="white"/>
</clipPath>

<linearGradient id="paint0_linear_172_15959" x1="38.91" y1="21.9358" x2="13.1998" y2="23.6204" gradientUnits="userSpaceOnUse">
<stop stop-color="#6AB935"/>
<stop offset="0.305922" stop-color="#00A5A9"/>
<stop offset="0.669783" stop-color="#008AD5"/>
<stop offset="1" stop-color="#0075C1"/>
</linearGradient>
</defs><symbol id="test-AC" viewBox="0 0 30 20">
<g clip-path="url(#clip0_162_17025)">
<path d="M0 0H30V20H0V0Z" fill="#0052B4"/>
<path d="M25.7369 10.5898C25.731 12.8822 25.3626 15.3501 22.3802 16.5255C19.3919 15.3501 19.0293 12.8822 19.0234 10.5898H25.7369Z" fill="white"/>
<path d="M25.7077 11.5605C25.544 13.6015 24.9825 15.5021 22.3744 16.5313C19.7779 15.5021 19.1872 13.5372 19.0469 11.5664" fill="#29DBFF"/>
<path d="M25.6007 12.5195C25.4136 13.9406 24.6241 15.6482 22.3785 16.5312C20.1329 15.6482 19.4253 14.0458 19.1562 12.5312" fill="white"/>
<path d="M25.3887 13.4687C25.0553 14.5038 24.26 15.7728 22.3887 16.5564C20.5173 15.8196 19.7454 14.5798 19.3828 13.457" fill="#29DBFF"/>
<path d="M24.9509 14.4394C24.5708 15.1002 23.9158 15.9248 22.3778 16.5388C20.7696 15.8663 20.1907 15.0593 19.8047 14.4277" fill="white"/>
<path d="M24.1183 15.502C23.6446 15.923 23.4165 16.1569 22.3873 16.5487C21.2119 16.0867 21.0657 15.8704 20.6797 15.5253" fill="#29DBFF"/>
<path d="M22.4172 13.5438C22.4055 13.5321 20.7856 15.6316 20.7856 15.6316C20.6803 15.5555 20.2008 15.076 20.0078 14.7544L22.423 11.8245L24.7739 14.731C24.5458 15.1111 24.1072 15.5263 24.002 15.6082L22.4172 13.5438ZM22.3762 4.98828L20.8265 7.61986H23.9259L22.3762 4.98828Z" fill="#5CC85C"/>
<path d="M17.9513 13.3222C18.162 11.7635 17.9255 10.4448 17.423 10.3769C16.9205 10.309 16.3423 11.5175 16.1316 13.0762C15.9208 14.6349 16.1574 15.9535 16.6598 16.0215C17.1623 16.0894 17.7405 14.8809 17.9513 13.3222Z" fill="#F7A226"/>
<path d="M18.1147 9.7867C18.2556 9.43609 18.195 9.08155 17.9792 8.99481C17.7635 8.90808 17.4743 9.12198 17.3333 9.47259C17.1924 9.8232 17.253 10.1777 17.4688 10.2645C17.6845 10.3512 17.9737 10.1373 18.1147 9.7867Z" fill="#DDC7AB"/>
<path d="M17.2512 15.9172C17.3041 15.5528 17.2615 15.245 17.156 15.2297C17.0505 15.2144 16.9221 15.4974 16.8692 15.8617C16.8163 16.2261 16.8589 16.5339 16.9644 16.5492C17.0699 16.5645 17.1983 16.2816 17.2512 15.9172Z" fill="#DDC7AB"/>
<path d="M17.5585 16.3975C17.6649 16.3918 17.7358 16.0995 17.7167 15.7448C17.6977 15.39 17.596 15.107 17.4896 15.1127C17.3832 15.1184 17.3123 15.4106 17.3313 15.7654C17.3503 16.1202 17.452 16.4032 17.5585 16.3975Z" fill="#DDC7AB"/>
<path d="M18.6858 12.5062C18.809 12.4577 18.7773 12.0846 18.615 11.673C18.4527 11.2613 18.2212 10.967 18.0981 11.0156C17.9749 11.0641 18.0066 11.4372 18.1689 11.8488C18.3312 12.2605 18.5626 12.5548 18.6858 12.5062Z" fill="#DDC7AB"/>
<path d="M18.6556 10.6386C19.0672 10.4763 19.3616 10.2448 19.313 10.1217C19.2644 9.99847 18.8913 10.0302 18.4797 10.1925C18.0681 10.3548 17.7737 10.5862 17.8223 10.7094C17.8709 10.8326 18.244 10.8009 18.6556 10.6386Z" fill="#DDC7AB"/>
<path d="M28.0793 16.0333C28.5818 15.9653 28.8183 14.6467 28.6075 13.088C28.3968 11.5293 27.8186 10.3208 27.3161 10.3887C26.8136 10.4566 26.5771 11.7753 26.7878 13.334C26.9986 14.8927 27.5768 16.1012 28.0793 16.0333Z" fill="#F7A226"/>
<path d="M27.2761 10.2786C27.4919 10.1919 27.5525 9.83734 27.4115 9.48674C27.2706 9.13613 26.9814 8.92222 26.7657 9.00896C26.5499 9.0957 26.4893 9.45024 26.6302 9.80085C26.7712 10.1515 27.0603 10.3654 27.2761 10.2786Z" fill="#DDC7AB"/>
<path d="M27.7812 16.5593C27.8867 16.544 27.9292 16.2362 27.8763 15.8718C27.8233 15.5074 27.6949 15.2245 27.5894 15.2398C27.4839 15.2552 27.4414 15.563 27.4943 15.9273C27.5473 16.2917 27.6757 16.5746 27.7812 16.5593Z" fill="#DDC7AB"/>
<path d="M27.412 15.7748C27.4311 15.42 27.3602 15.1278 27.2538 15.1221C27.1473 15.1164 27.0456 15.3993 27.0266 15.7541C27.0076 16.1089 27.0785 16.4011 27.1849 16.4068C27.2913 16.4125 27.393 16.1295 27.412 15.7748Z" fill="#DDC7AB"/>
<path d="M26.5681 11.8524C26.7304 11.4408 26.7621 11.0677 26.6389 11.0192C26.5157 10.9706 26.2843 11.2649 26.122 11.6765C25.9597 12.0882 25.928 12.4612 26.0512 12.5098C26.1744 12.5584 26.4058 12.2641 26.5681 11.8524Z" fill="#DDC7AB"/>
<path d="M26.9224 10.7182C26.9709 10.595 26.6766 10.3636 26.265 10.2013C25.8533 10.039 25.4803 10.0073 25.4317 10.1305C25.3831 10.2537 25.6774 10.4851 26.0891 10.6474C26.5007 10.8097 26.8738 10.8414 26.9224 10.7182Z" fill="#DDC7AB"/>
<path d="M21.834 7.61914L20.8281 9.06358L21.8691 10.5899H23.1615L23.4363 9.10452L23.1205 7.61914H21.834Z" fill="#B0C6CC"/>
<path d="M14.9708 0V6.8655H12.2749L14.9708 8.66082V9.98246H13.6491L9.35673 7.12281V9.98246H5.61404V7.12281L1.32164 9.98246H0V8.66082L2.69591 6.8655H0V3.12281H2.69591L0 1.32749V0H1.32164L5.61404 2.85965V0H9.35673V2.85965L13.6491 0H14.9708Z" fill="white"/>
<path d="M8.42105 0H6.54971V4.05848H0V5.92982H6.54971V9.98246H8.42105V5.92982H14.9708V4.05848H8.42105V0Z" fill="#D80027"/>
<path d="M14.9693 1.32812V3.12345H12.2734L14.9693 1.32812Z" fill="#2E52B2"/>
<path d="M0 9.98219V9.33892L3.65497 6.86523H4.97661L0.426901 9.98219H0Z" fill="#D80027"/>
<path d="M0.426901 0.00585938L4.97661 3.11697H3.65497L0 0.649134V0.00585938H0.426901ZM14.9708 0.00585938V0.649134L11.3158 3.12282H9.99415L14.5439 0.00585938H14.9708ZM14.5439 9.98247L9.99415 6.86551H11.3158L14.9708 9.33919V9.98247H14.5439Z" fill="#D80027"/>
</g>

</symbol><symbol id="test-AZ" viewBox="0 0 30 20">
<g clip-path="url(#clip0_162_16914)">
<path d="M0 0H30V20H0V0Z" fill="#EF3340"/>
<path d="M0 0H30V6.66667H0V0Z" fill="#00B5E2"/>
<path d="M0 13.334H30V20.0007H0V13.334Z" fill="#509E2F"/>
<path d="M15.5314 12.4328C14.1864 12.4328 13.0986 11.345 13.0986 10C13.0986 8.65498 14.1864 7.56726 15.5314 7.56726C15.9524 7.56726 16.3443 7.67253 16.6893 7.85966C16.1513 7.33334 15.4086 7.00586 14.5957 7.00586C12.9407 7.00586 11.6016 8.34504 11.6016 10C11.6016 11.655 12.9407 12.9942 14.5957 12.9942C15.4086 12.9942 16.1513 12.6667 16.6893 12.1404C16.3443 12.3275 15.9524 12.4328 15.5314 12.4328Z" fill="white"/>
<path d="M17.403 8.31641L17.7246 9.22284L18.5959 8.80763L18.1807 9.67898L19.0872 10.0006L18.1807 10.3223L18.5959 11.1936L17.7246 10.7784L17.403 11.6848L17.0813 10.7784L16.21 11.1936L16.6252 10.3223L15.7188 10.0006L16.6252 9.67898L16.21 8.80763L17.0813 9.22284L17.403 8.31641Z" fill="white"/>
</g>

</symbol><symbol id="test-IL" viewBox="0 0 30 20">
<g clip-path="url(#clip0_162_16315)">
<path d="M0 0H30V20H0V0Z" fill="white"/>
<path d="M19.9181 7.15837H16.6374L15 4.31627L13.3626 7.15837H10.0819L11.7193 10.0005L10.0819 12.8426H13.3626L15 15.6847L16.6374 12.8426H19.9181L18.2807 10.0005L19.9181 7.15837ZM17.1462 10.0005L16.1404 11.942H13.8655L12.8538 10.0005L13.8596 8.05896H16.1345L17.1462 10.0005ZM15 5.80165L15.6959 7.16422H14.2982L15 5.80165ZM11.5906 8.05896H12.9883L12.3567 9.28703L11.5906 8.05896ZM11.5906 11.942L12.3509 10.6496L13.0468 11.942H11.5906ZM15 14.135L14.3041 12.8426H15.7018L15 14.135ZM18.4737 11.942H17.0117L17.7076 10.6496L18.4737 11.942ZM16.9474 8.05896H18.4737L17.7134 9.35136L16.9474 8.05896ZM0 1.24609H29.9415V3.74317H0V1.24609ZM0 16.2169H29.9415V18.7139H0V16.2169Z" fill="#2E52B2"/>
</g>

</symbol><symbol id="&#xB300;&#xAD6C;&#xC740;&#xD589;" viewBox="0 0 41 41">
<path fill-rule="evenodd" clip-rule="evenodd" d="M20.2266 6.70898C9.18853 6.70898 1.91406 12.5018 1.91406 19.6499C1.91406 26.7963 9.18853 32.59 20.2266 32.59C31.2663 32.59 38.5425 26.7963 38.5425 19.6499C38.5425 12.5018 31.2663 6.70898 20.2266 6.70898Z" fill="#FEFEFE"/>
<path fill-rule="evenodd" clip-rule="evenodd" d="M23.4928 24.4855C26.6373 23.9397 37.255 21.7546 35.9469 15.6957C35.476 13.5224 33.2404 11.1318 29.8677 9.46991C27.1722 8.25693 23.882 7.55273 20.1867 7.55273C9.93872 7.55273 2.8125 12.9682 2.8125 19.6496C2.8125 24.3027 6.272 28.3426 11.8348 30.3642C13.015 27.2576 17.7152 25.4879 23.4928 24.4855Z" fill="#0075C1"/>
<path fill-rule="evenodd" clip-rule="evenodd" d="M20.2462 26.6287C15.6512 27.2057 13.5428 28.6899 12.1875 30.4925C14.5292 31.2936 17.2239 31.7451 20.1805 31.7451C30.4293 31.7451 37.5555 26.3314 37.5555 19.6499C37.5555 19.0577 37.499 18.4757 37.3895 17.9062C37.0501 25.751 25.2741 26.0045 20.2462 26.6287Z" fill="url(#paint0_linear_172_15959)"/>
<path fill-rule="evenodd" clip-rule="evenodd" d="M24.4894 22.9471C24.4381 22.3793 24.417 21.9919 24.417 21.6583V18.2687H22.7845L22.8368 18.3732C22.8384 18.3757 23.0027 18.7008 23.0027 19.4118L23.0027 19.4179C23.003 19.5516 23.007 21.7808 22.9429 22.3195C22.5487 22.4206 22.0214 22.4568 21.6794 22.4568C19.0892 22.4568 17.7743 20.9693 17.7743 18.0388C17.7743 15.8015 19.2543 14.1311 21.3719 13.9778C22.4863 13.8986 23.5586 14.2019 24.2342 14.7882L24.3521 14.8909V13.5213L24.2957 13.5103C23.6227 13.3806 22.8326 13.2441 22.0593 13.2441C18.3302 13.2441 16.1022 15.2076 16.1022 18.4953C16.1022 21.9978 18.8222 23.2453 21.3686 23.2453C22.4476 23.2453 23.5637 23.1652 24.4305 23.0229L24.4953 23.0119L24.4894 22.9471ZM8.50037 14.1995C8.69832 14.1827 9.3048 14.1389 9.74366 14.1389C12.3676 14.1389 13.5915 15.4108 13.5915 18.1425C13.5915 20.9652 12.504 22.3391 10.2693 22.3391C8.63346 22.3391 8.50037 22.2599 8.50037 21.2904V14.1995ZM10.2961 13.3335H6.85938L6.89981 13.4321C7.05227 13.8027 7.04301 14.4783 7.0329 15.0764C7.02869 15.217 7.027 23.0104 7.027 23.0104L7.09523 23.0121C7.11124 23.0137 8.66115 23.0693 10.1302 23.0693C13.1997 23.0693 15.2626 20.9888 15.2626 17.8923C15.2626 15.1227 13.3134 13.3335 10.2961 13.3335ZM28.5795 14.093H27.6192L27.6141 17.4093H28.2408C29.9424 17.4093 30.735 16.8416 30.735 15.6219C30.735 14.5504 30.0923 14.093 28.5795 14.093ZM28.3722 18.1692H27.6141V21.3575C27.6141 22.0633 27.9123 22.3388 28.6746 22.3388C30.2473 22.3388 31.0121 21.643 31.0121 20.2127C31.0121 18.8565 30.126 18.1692 28.3722 18.1692ZM32.1417 15.4248C32.1417 16.626 31.2489 17.4489 30.3155 17.6974C31.7231 17.999 32.6808 18.9685 32.6808 20.1259C32.6808 21.9959 31.264 23.069 28.7934 23.069C27.4943 23.069 26.425 23.0881 26.2463 23.0913C26.23 23.0916 26.2211 23.0918 26.2201 23.0918L26.1476 23.0935V14.7021C26.1476 13.81 26.0626 13.4242 26.0609 13.42L26.0415 13.3332H28.9813C30.9616 13.3332 32.1417 14.1141 32.1417 15.4248Z" fill="#FEFEFE"/>

</symbol><symbol id="&#xBC45;&#xD06C;&#xC624;&#xBE0C;&#xC544;&#xBA54;&#xB9AC;&#xCE74;" viewBox="0 0 41 41">
<path fill-rule="evenodd" clip-rule="evenodd" d="M25.0564 13.2127C25.1889 13.1748 25.3247 13.137 25.4628 13.0985C26.0953 12.9223 26.7737 12.7332 27.3812 12.4729C25.2677 11.5222 22.5206 10.571 20.0898 10.043C19.6676 10.1484 18.5052 10.4656 17.7654 10.6769C17.9928 10.7621 18.3577 10.8702 18.8416 11.0136C20.1573 11.4034 22.3526 12.0539 25.0564 13.2127ZM15.4406 11.5223C17.9768 12.1563 21.5692 13.53 22.6257 14.0581C22.253 14.218 21.7996 14.4047 21.3469 14.5911C20.9016 14.7745 20.457 14.9576 20.0904 15.1147C17.2374 13.6355 13.856 12.6843 12.9048 12.473C13.6442 12.2617 14.7012 11.8391 15.4406 11.5223ZM38.4756 18.3901C33.9321 20.1865 25.9017 24.9413 20.0899 29.9078C19.4821 29.3674 18.8311 28.8702 18.1644 28.3609C17.7882 28.0735 17.4069 27.7824 17.0256 27.4774C23.0487 22.7222 29.8112 18.4959 35.5171 16.5941C36.6796 17.3335 37.7362 17.9674 38.4756 18.3901ZM12.5796 24.2692C12.2179 24.0196 11.8663 23.777 11.5312 23.5677C19.3503 17.4392 26.0069 14.6921 30.0223 13.6355C30.3925 13.8205 30.7238 13.9926 31.0389 14.1563C31.6232 14.4597 32.1518 14.7343 32.7694 15.0088C26.2187 17.1224 20.3014 20.7148 14.2783 25.3641C13.7044 25.0453 13.1304 24.6492 12.5796 24.2692Z" fill="#E31837"/>
<path fill-rule="evenodd" clip-rule="evenodd" d="M1.91406 18.4954C3.8159 17.2271 7.19694 15.2194 10.3671 13.7402C10.6634 13.8588 11.0597 13.9774 11.5186 14.1147C11.8774 14.222 12.2745 14.3408 12.692 14.48C11.4236 15.0081 8.25393 16.6986 4.13266 19.4462C3.71511 19.2605 3.35866 19.1157 3.03648 18.9847C2.62509 18.8176 2.26958 18.6731 1.91406 18.4954ZM14.911 15.3253C15.6504 15.6424 16.6015 16.0651 17.4468 16.4877C14.3825 18.0728 11.6354 19.9746 8.78243 21.9823C8.18536 21.6835 7.58829 21.3322 7.02824 21.0028C6.79544 20.8658 6.56903 20.7326 6.35168 20.6085C9.94487 18.0728 12.692 16.3822 14.911 15.3253Z" fill="#012169"/>
</symbol></svg>