<svg width="41" height="41" viewBox="0 0 41 41" fill="none" xmlns="http://www.w3.org/2000/svg">
<path fill-rule="evenodd" clip-rule="evenodd" d="M20.2266 6.70898C9.18853 6.70898 1.91406 12.5018 1.91406 19.6499C1.91406 26.7963 9.18853 32.59 20.2266 32.59C31.2663 32.59 38.5425 26.7963 38.5425 19.6499C38.5425 12.5018 31.2663 6.70898 20.2266 6.70898Z" fill="#FEFEFE"/>
<path fill-rule="evenodd" clip-rule="evenodd" d="M23.4928 24.4855C26.6373 23.9397 37.255 21.7546 35.9469 15.6957C35.476 13.5224 33.2404 11.1318 29.8677 9.46991C27.1722 8.25693 23.882 7.55273 20.1867 7.55273C9.93872 7.55273 2.8125 12.9682 2.8125 19.6496C2.8125 24.3027 6.272 28.3426 11.8348 30.3642C13.015 27.2576 17.7152 25.4879 23.4928 24.4855Z" fill="#0075C1"/>
<path fill-rule="evenodd" clip-rule="evenodd" d="M20.2462 26.6287C15.6512 27.2057 13.5428 28.6899 12.1875 30.4925C14.5292 31.2936 17.2239 31.7451 20.1805 31.7451C30.4293 31.7451 37.5555 26.3314 37.5555 19.6499C37.5555 19.0577 37.499 18.4757 37.3895 17.9062C37.0501 25.751 25.2741 26.0045 20.2462 26.6287Z" fill="url(#paint0_linear_172_15959)"/>
<path fill-rule="evenodd" clip-rule="evenodd" d="M24.4894 22.9471C24.4381 22.3793 24.417 21.9919 24.417 21.6583V18.2687H22.7845L22.8368 18.3732C22.8384 18.3757 23.0027 18.7008 23.0027 19.4118L23.0027 19.4179C23.003 19.5516 23.007 21.7808 22.9429 22.3195C22.5487 22.4206 22.0214 22.4568 21.6794 22.4568C19.0892 22.4568 17.7743 20.9693 17.7743 18.0388C17.7743 15.8015 19.2543 14.1311 21.3719 13.9778C22.4863 13.8986 23.5586 14.2019 24.2342 14.7882L24.3521 14.8909V13.5213L24.2957 13.5103C23.6227 13.3806 22.8326 13.2441 22.0593 13.2441C18.3302 13.2441 16.1022 15.2076 16.1022 18.4953C16.1022 21.9978 18.8222 23.2453 21.3686 23.2453C22.4476 23.2453 23.5637 23.1652 24.4305 23.0229L24.4953 23.0119L24.4894 22.9471ZM8.50037 14.1995C8.69832 14.1827 9.3048 14.1389 9.74366 14.1389C12.3676 14.1389 13.5915 15.4108 13.5915 18.1425C13.5915 20.9652 12.504 22.3391 10.2693 22.3391C8.63346 22.3391 8.50037 22.2599 8.50037 21.2904V14.1995ZM10.2961 13.3335H6.85938L6.89981 13.4321C7.05227 13.8027 7.04301 14.4783 7.0329 15.0764C7.02869 15.217 7.027 23.0104 7.027 23.0104L7.09523 23.0121C7.11124 23.0137 8.66115 23.0693 10.1302 23.0693C13.1997 23.0693 15.2626 20.9888 15.2626 17.8923C15.2626 15.1227 13.3134 13.3335 10.2961 13.3335ZM28.5795 14.093H27.6192L27.6141 17.4093H28.2408C29.9424 17.4093 30.735 16.8416 30.735 15.6219C30.735 14.5504 30.0923 14.093 28.5795 14.093ZM28.3722 18.1692H27.6141V21.3575C27.6141 22.0633 27.9123 22.3388 28.6746 22.3388C30.2473 22.3388 31.0121 21.643 31.0121 20.2127C31.0121 18.8565 30.126 18.1692 28.3722 18.1692ZM32.1417 15.4248C32.1417 16.626 31.2489 17.4489 30.3155 17.6974C31.7231 17.999 32.6808 18.9685 32.6808 20.1259C32.6808 21.9959 31.264 23.069 28.7934 23.069C27.4943 23.069 26.425 23.0881 26.2463 23.0913C26.23 23.0916 26.2211 23.0918 26.2201 23.0918L26.1476 23.0935V14.7021C26.1476 13.81 26.0626 13.4242 26.0609 13.42L26.0415 13.3332H28.9813C30.9616 13.3332 32.1417 14.1141 32.1417 15.4248Z" fill="#FEFEFE"/>
<defs>
<linearGradient id="paint0_linear_172_15959" x1="38.91" y1="21.9358" x2="13.1998" y2="23.6204" gradientUnits="userSpaceOnUse">
<stop stop-color="#6AB935"/>
<stop offset="0.305922" stop-color="#00A5A9"/>
<stop offset="0.669783" stop-color="#008AD5"/>
<stop offset="1" stop-color="#0075C1"/>
</linearGradient>
</defs>
</svg>
