<svg width="41" height="41" viewBox="0 0 41 41" fill="none" xmlns="http://www.w3.org/2000/svg">
<path fill-rule="evenodd" clip-rule="evenodd" d="M25.0564 13.2127C25.1889 13.1748 25.3247 13.137 25.4628 13.0985C26.0953 12.9223 26.7737 12.7332 27.3812 12.4729C25.2677 11.5222 22.5206 10.571 20.0898 10.043C19.6676 10.1484 18.5052 10.4656 17.7654 10.6769C17.9928 10.7621 18.3577 10.8702 18.8416 11.0136C20.1573 11.4034 22.3526 12.0539 25.0564 13.2127ZM15.4406 11.5223C17.9768 12.1563 21.5692 13.53 22.6257 14.0581C22.253 14.218 21.7996 14.4047 21.3469 14.5911C20.9016 14.7745 20.457 14.9576 20.0904 15.1147C17.2374 13.6355 13.856 12.6843 12.9048 12.473C13.6442 12.2617 14.7012 11.8391 15.4406 11.5223ZM38.4756 18.3901C33.9321 20.1865 25.9017 24.9413 20.0899 29.9078C19.4821 29.3674 18.8311 28.8702 18.1644 28.3609C17.7882 28.0735 17.4069 27.7824 17.0256 27.4774C23.0487 22.7222 29.8112 18.4959 35.5171 16.5941C36.6796 17.3335 37.7362 17.9674 38.4756 18.3901ZM12.5796 24.2692C12.2179 24.0196 11.8663 23.777 11.5312 23.5677C19.3503 17.4392 26.0069 14.6921 30.0223 13.6355C30.3925 13.8205 30.7238 13.9926 31.0389 14.1563C31.6232 14.4597 32.1518 14.7343 32.7694 15.0088C26.2187 17.1224 20.3014 20.7148 14.2783 25.3641C13.7044 25.0453 13.1304 24.6492 12.5796 24.2692Z" fill="#E31837"/>
<path fill-rule="evenodd" clip-rule="evenodd" d="M1.91406 18.4954C3.8159 17.2271 7.19694 15.2194 10.3671 13.7402C10.6634 13.8588 11.0597 13.9774 11.5186 14.1147C11.8774 14.222 12.2745 14.3408 12.692 14.48C11.4236 15.0081 8.25393 16.6986 4.13266 19.4462C3.71511 19.2605 3.35866 19.1157 3.03648 18.9847C2.62509 18.8176 2.26958 18.6731 1.91406 18.4954ZM14.911 15.3253C15.6504 15.6424 16.6015 16.0651 17.4468 16.4877C14.3825 18.0728 11.6354 19.9746 8.78243 21.9823C8.18536 21.6835 7.58829 21.3322 7.02824 21.0028C6.79544 20.8658 6.56903 20.7326 6.35168 20.6085C9.94487 18.0728 12.692 16.3822 14.911 15.3253Z" fill="#012169"/>
</svg>
